<?xml version="1.0" standalone="no"?>
<!DOCTYPE svg PUBLIC "-//W3C//DTD SVG 20010904//EN"
 "http://www.w3.org/TR/2001/REC-SVG-20010904/DTD/svg10.dtd">
<svg version="1.0" xmlns="http://www.w3.org/2000/svg"
 width="441.000000pt" height="441.000000pt" viewBox="0 0 441.000000 441.000000"
 preserveAspectRatio="xMidYMid meet">
<metadata>
Created by potrace 1.14, written by Peter Selinger 2001-2017
</metadata>
<g transform="translate(0.000000,441.000000) scale(0.100000,-0.100000)"
fill="#000000" stroke="none">
<path d="M2050 4394 c-361 -33 -682 -137 -980 -316 -159 -96 -261 -177 -416
-332 -198 -200 -340 -403 -449 -645 -58 -132 -115 -301 -99 -301 11 0 33 28
27 34 -9 8 28 35 48 36 9 0 19 -7 23 -15 3 -9 12 -12 21 -8 11 4 13 8 5 13 -6
3 -8 14 -4 23 7 19 47 33 63 22 6 -3 11 -2 11 3 0 6 11 13 25 16 23 6 31 24
26 63 -1 7 11 15 26 18 15 4 36 10 45 16 10 5 26 9 37 9 11 0 31 14 46 31 23
28 30 31 66 26 21 -3 53 0 70 6 39 15 52 -3 34 -46 -11 -27 -10 -34 8 -59 l20
-27 -26 -39 c-15 -21 -27 -45 -27 -53 0 -9 -11 -21 -25 -27 -17 -8 -29 -26
-38 -59 -15 -50 -13 -71 4 -40 12 21 39 23 39 2 0 -8 -7 -15 -15 -15 -11 0
-12 -6 -6 -22 8 -21 15 -23 86 -23 77 -1 78 -1 81 -28 1 -15 -2 -25 -7 -22 -5
4 -9 -14 -9 -39 0 -43 -12 -61 -23 -33 -4 9 -6 9 -6 0 -1 -7 -7 -10 -15 -7 -9
4 -18 -6 -26 -30 -9 -28 -16 -35 -38 -36 -68 -1 -95 -6 -106 -22 -7 -10 -21
-18 -30 -18 -9 0 -28 -11 -42 -25 -18 -19 -31 -24 -50 -19 -15 4 -24 2 -24 -6
0 -6 -12 -11 -27 -10 -47 3 -53 1 -53 -24 0 -13 -7 -29 -15 -36 -7 -6 -17 -31
-21 -55 -4 -31 -12 -46 -25 -50 -10 -4 -19 -11 -19 -17 0 -7 -19 -9 -54 -5
-38 4 -60 1 -73 -8 -26 -20 -33 -18 -33 10 0 17 5 25 18 25 40 0 43 22 7 61
-25 28 -32 43 -28 61 5 19 3 21 -8 11 -7 -7 -21 -13 -31 -13 -14 0 -18 -8 -18
-39 0 -31 4 -40 22 -46 l23 -8 -22 -4 c-12 -2 -24 -12 -28 -21 -8 -20 5 -142
14 -142 11 0 51 49 51 63 1 6 9 1 20 -11 18 -22 18 -26 4 -53 -8 -16 -19 -27
-25 -23 -5 3 -16 0 -24 -6 -8 -6 -19 -9 -25 -5 -13 8 -13 -18 5 -146 16 -124
43 -244 86 -384 36 -115 51 -113 46 6 -4 84 -9 77 100 181 13 12 23 29 23 38
0 9 11 31 25 50 14 19 25 43 25 55 0 28 19 45 50 45 41 0 170 101 196 155 8
16 34 44 58 62 29 21 45 42 49 62 5 22 18 37 51 56 25 15 59 43 76 63 36 42
76 91 91 110 6 7 15 26 20 42 9 25 7 34 -10 56 -12 15 -21 34 -21 42 0 21 -23
86 -33 93 -5 3 -9 10 -9 15 0 5 -4 20 -9 32 -5 13 -7 28 -3 33 3 5 0 9 -6 9
-12 0 -23 27 -35 78 -6 31 -5 33 17 30 15 -2 24 -11 26 -25 5 -33 24 -28 50
12 22 35 29 65 14 65 -10 0 -32 59 -32 86 0 12 -16 30 -42 47 -37 24 -39 27
-18 27 29 1 60 21 60 41 1 34 50 67 50 34 0 -8 9 -15 19 -15 11 0 23 -4 26
-10 3 -5 12 -10 20 -10 23 0 4 41 -26 59 -16 9 -29 21 -29 28 0 6 -6 13 -12
16 -10 3 -10 9 -2 28 7 13 17 39 24 56 12 31 14 33 51 27 35 -6 39 -4 39 15 0
11 5 21 12 21 6 0 19 7 29 16 16 14 18 14 24 -5 7 -22 42 -47 52 -37 3 3 14 1
24 -5 23 -12 25 2 5 34 -24 36 -10 71 37 93 52 24 57 50 9 47 -46 -2 -36 18
19 37 24 8 49 18 55 22 9 6 59 16 169 34 22 3 64 18 92 32 43 22 53 32 53 53
0 14 -5 30 -12 37 -7 7 -11 47 -10 113 1 57 -2 107 -5 113 -17 26 -10 57 18
85 16 16 29 40 29 53 0 28 66 93 115 114 19 8 57 14 84 14 42 0 56 -5 85 -30
18 -17 55 -39 80 -50 50 -23 166 -124 166 -146 0 -24 44 -104 57 -104 7 0 18
-9 25 -20 15 -24 48 -27 48 -4 0 9 14 36 30 61 17 24 30 50 30 57 0 7 8 20 19
30 10 9 26 47 36 84 10 37 24 72 31 77 7 6 20 32 29 59 20 57 83 146 104 146
9 0 11 3 5 9 -23 23 -397 47 -534 35z m-1304 -1180 c-3 -9 -6 -22 -6 -30 0 -8
-4 -14 -10 -14 -11 0 -14 43 -3 53 12 13 25 7 19 -9z m70 -342 c-10 -9 -34 31
-28 46 4 10 9 7 19 -13 8 -15 12 -29 9 -33z"/>
<path d="M2940 4261 c0 -6 5 -13 10 -16 6 -3 10 -16 10 -28 0 -13 7 -32 15
-44 8 -12 14 -30 13 -40 -4 -45 3 -73 17 -73 20 0 19 -21 -2 -58 -17 -29 -17
-31 0 -50 19 -21 23 -57 6 -68 -12 -7 -4 -66 12 -96 8 -15 14 -16 30 -7 29 15
35 4 12 -25 -21 -26 -23 -71 -5 -117 11 -28 68 -61 99 -57 31 4 103 -22 103
-37 0 -15 23 -44 97 -123 42 -44 46 -55 58 -144 3 -27 10 -48 16 -48 5 0 9 -6
9 -13 0 -17 47 -60 88 -81 31 -16 43 -36 22 -36 -5 0 -10 -7 -10 -15 0 -8 -4
-15 -9 -15 -5 0 -8 -8 -7 -17 2 -11 18 -23 42 -30 24 -7 31 -12 18 -12 -12 -1
-30 -13 -40 -28 -10 -16 -24 -34 -31 -41 -15 -16 -17 -58 -3 -67 6 -3 10 -28
10 -55 0 -27 4 -51 9 -55 5 -3 12 -18 16 -34 3 -16 13 -35 21 -42 8 -6 14 -24
14 -39 0 -36 19 -51 66 -50 22 1 54 -2 71 -6 32 -6 33 -8 27 -45 -6 -35 -4
-39 27 -58 19 -11 37 -23 41 -28 4 -4 16 -17 28 -28 84 -81 156 -160 160 -178
3 -11 19 -28 35 -37 20 -11 31 -26 33 -44 2 -15 10 -30 18 -33 8 -3 14 -11 14
-19 0 -7 9 -18 20 -24 11 -6 20 -17 20 -24 0 -8 7 -19 15 -26 8 -7 15 -20 15
-30 0 -10 22 -41 50 -70 36 -37 54 -67 67 -108 9 -31 25 -66 35 -78 10 -11 18
-29 18 -39 0 -23 9 -15 16 16 103 423 43 961 -155 1391 -63 137 -193 344 -281
447 l-21 24 -15 -22 c-12 -17 -19 -19 -29 -11 -18 15 -8 38 18 42 18 3 -1 27
-118 144 -223 224 -467 384 -743 490 -71 27 -72 27 -72 15z m926 -809 c-13
-12 -16 8 -9 49 l8 44 3 -44 c2 -23 1 -46 -2 -49z m0 -51 c-8 -13 -36 -15 -36
-3 0 4 5 13 12 20 14 14 34 0 24 -17z"/>
<path d="M2080 3641 c-36 -4 -75 -12 -87 -19 -12 -6 -45 -12 -74 -12 -68 0
-179 -19 -179 -31 0 -17 90 -49 138 -49 40 0 129 22 215 53 51 18 102 70 65
65 -7 0 -42 -4 -78 -7z"/>
<path d="M865 3040 c3 -5 8 -10 11 -10 2 0 4 5 4 10 0 6 -5 10 -11 10 -5 0 -7
-4 -4 -10z"/>
<path d="M3291 3036 c-6 -7 -20 -77 -31 -155 -11 -78 -22 -146 -24 -150 -3 -3
-10 -53 -16 -110 -10 -90 -9 -106 5 -127 8 -13 21 -24 27 -24 6 0 21 -8 32
-19 23 -20 78 -41 108 -41 11 0 23 11 29 27 6 16 16 35 24 43 25 28 47 141 40
205 -10 94 -23 132 -76 217 -27 44 -49 83 -49 87 0 12 -40 61 -50 61 -4 0 -13
-6 -19 -14z"/>
<path d="M386 2867 c-27 -20 -5 -31 50 -22 41 6 60 20 32 23 -7 1 -24 4 -38 7
-15 4 -33 0 -44 -8z"/>
<path d="M110 2743 c-18 -6 -40 -33 -40 -47 0 -6 4 -5 9 3 11 17 91 5 91 -14
0 -21 19 -28 35 -15 49 41 -26 98 -95 73z"/>
<path d="M60 2631 c-16 -31 -12 -38 23 -44 17 -3 42 -8 55 -12 18 -6 22 -4 22
14 0 14 -6 21 -19 21 -11 0 -23 4 -26 10 -3 5 -15 14 -25 20 -15 8 -21 6 -30
-9z"/>
<path d="M976 2555 c4 -8 8 -15 10 -15 2 0 4 7 4 15 0 8 -4 15 -10 15 -5 0 -7
-7 -4 -15z"/>
<path d="M2150 1643 c-8 -3 -18 -11 -22 -17 -7 -10 -82 -21 -213 -31 -73 -5
-92 -23 -70 -66 9 -16 30 -33 50 -40 19 -7 38 -21 41 -31 3 -10 9 -16 14 -13
5 3 4 -8 -1 -25 -6 -16 -14 -30 -17 -30 -4 0 -22 14 -41 30 -18 17 -44 30 -57
30 -13 0 -24 5 -24 11 0 6 -7 8 -15 5 -9 -3 -18 1 -22 10 -3 10 -14 14 -27 11
-11 -3 -30 -2 -40 2 -26 10 -68 -12 -111 -56 -32 -33 -39 -45 -37 -64 1 -3
-11 -12 -25 -18 -24 -11 -25 -11 -12 5 12 15 12 17 -1 12 -9 -3 -14 -16 -13
-33 2 -21 -1 -25 -9 -17 -9 9 -23 -5 -57 -56 -25 -38 -52 -75 -58 -83 -7 -8
-23 -27 -35 -42 -30 -36 -94 -52 -148 -36 -49 15 -92 72 -83 109 16 66 78 89
134 49 42 -30 52 -20 27 29 -29 57 -89 87 -139 71 -49 -17 -69 -37 -96 -99
-28 -62 -26 -102 8 -176 21 -44 79 -99 129 -121 94 -43 173 -50 250 -23 14 5
77 23 140 40 122 34 260 93 260 110 0 6 4 8 10 5 5 -3 40 15 77 41 l66 48 -6
-65 c-7 -72 5 -102 43 -112 39 -10 48 46 24 150 -6 27 -5 27 37 -13 69 -65
162 -105 311 -134 106 -21 273 -27 325 -11 36 11 117 63 150 97 28 28 63 118
63 160 0 78 -51 140 -122 150 -62 9 -110 -19 -126 -74 -19 -61 -15 -64 28 -22
50 49 83 52 105 10 30 -59 13 -115 -46 -146 -28 -14 -33 -13 -93 15 -59 28
-126 88 -126 113 0 17 -201 209 -214 205 -6 -3 -18 2 -26 9 -19 16 -60 7 -60
-13 0 -13 -3 -13 -15 -3 -11 10 -18 9 -30 -4 -9 -9 -23 -16 -30 -16 -8 0 -19
-8 -25 -17 -8 -13 -13 -14 -16 -5 -8 19 -22 14 -29 -9 -6 -17 -9 -19 -16 -8
-5 8 -9 9 -9 3 0 -5 -6 -19 -14 -30 -14 -19 -15 -18 -35 5 l-20 23 26 34 c14
19 29 34 34 34 5 0 9 5 9 11 0 6 11 20 25 31 13 10 24 22 24 26 -3 21 3 31 23
34 13 2 24 11 26 21 4 18 -2 20 -28 10z"/>
<path d="M1730 1611 c27 -22 74 -31 52 -9 -6 6 -17 13 -24 14 -7 1 -22 5 -33
9 -16 6 -15 3 5 -14z"/>
<path d="M260 1280 c0 -5 7 -10 15 -10 8 0 15 5 15 10 0 6 -7 10 -15 10 -8 0
-15 -4 -15 -10z"/>
<path d="M2018 863 c-8 -10 -22 -30 -31 -45 -10 -16 -24 -28 -31 -28 -25 0
-27 -30 -3 -39 51 -19 85 -21 128 -8 24 8 56 18 72 21 34 8 35 19 3 34 -14 6
-43 27 -64 47 -45 40 -53 42 -74 18z"/>
</g>
</svg>
